solid Visualization Toolkit generated SLA File
 facet normal -0.99969907881485498 0 0.024530630173934517
  outer loop
   vertex 4.9600000381469727 0.5 0.36000001430511475
   vertex 4.9600000381469727 0 0.36000001430511475
   vertex 4.9600481986999512 0.5 0.3619627058506012
  endloop
 endfacet
 facet normal -0.99969907881485498 0 0.024530630173934517
  outer loop
   vertex 4.9600481986999512 0 0.3619627058506012
   vertex 4.9600481986999512 0.5 0.3619627058506012
   vertex 4.9600000381469727 0 0.36000001430511475
  endloop
 endfacet
 facet normal -0.99728850674142289 0 0.073590993480607284
  outer loop
   vertex 4.9600481986999512 0.5 0.3619627058506012
   vertex 4.9600481986999512 0 0.3619627058506012
   vertex 4.9601926803588867 0.5 0.36392068862915039
  endloop
 endfacet
 facet normal -0.99728850674142289 0 0.073590993480607284
  outer loop
   vertex 4.9601926803588867 0 0.36392068862915039
   vertex 4.9601926803588867 0.5 0.36392068862915039
   vertex 4.9600481986999512 0 0.3619627058506012
  endloop
 endfacet
 facet normal -0.9924797200396821 0 0.12240917167416103
  outer loop
   vertex 4.9601926803588867 0.5 0.36392068862915039
   vertex 4.9601926803588867 0 0.36392068862915039
   vertex 4.9604330062866211 0.5 0.36586922407150269
  endloop
 endfacet
 facet normal -0.9924797200396821 0 0.12240917167416103
  outer loop
   vertex 4.9604330062866211 0 0.36586922407150269
   vertex 4.9604330062866211 0.5 0.36586922407150269
   vertex 4.9601926803588867 0 0.36392068862915039
  endloop
 endfacet
 facet normal -0.9852736350566843 0 0.17098498197849987
  outer loop
   vertex 4.9604330062866211 0.5 0.36586922407150269
   vertex 4.9604330062866211 0 0.36586922407150269
   vertex 4.9607686996459961 0.5 0.36780360341072083
  endloop
 endfacet
 facet normal -0.9852736350566843 0 0.17098498197849987
  outer loop
   vertex 4.9607686996459961 0 0.36780360341072083
   vertex 4.9607686996459961 0.5 0.36780360341072083
   vertex 4.9604330062866211 0 0.36586922407150269
  endloop
 endfacet
 facet normal -0.97570824024515224 0 0.21907402839612983
  outer loop
   vertex 4.9607686996459961 0.5 0.36780360341072083
   vertex 4.9607686996459961 0 0.36780360341072083
   vertex 4.9611988067626953 0.5 0.36971920728683472
  endloop
 endfacet
 facet normal -0.97570824024515224 0 0.21907402839612983
  outer loop
   vertex 4.9611988067626953 0 0.36971920728683472
   vertex 4.9611988067626953 0.5 0.36971920728683472
   vertex 4.9607686996459961 0 0.36780360341072083
  endloop
 endfacet
 facet normal -0.96378514137659133 0 0.26667996036767344
  outer loop
   vertex 4.9611988067626953 0.5 0.36971920728683472
   vertex 4.9611988067626953 0 0.36971920728683472
   vertex 4.9617223739624023 0.5 0.37161138653755188
  endloop
 endfacet
 facet normal -0.96378514137659133 0 0.26667996036767344
  outer loop
   vertex 4.9617223739624023 0 0.37161138653755188
   vertex 4.9617223739624023 0.5 0.37161138653755188
   vertex 4.9611988067626953 0 0.36971920728683472
  endloop
 endfacet
 facet normal -0.94949376702770849 0 0.31378589256933093
  outer loop
   vertex 4.9617223739624023 0.5 0.37161138653755188
   vertex 4.9617223739624023 0 0.37161138653755188
   vertex 4.9623384475708008 0.5 0.373475581407547
  endloop
 endfacet
 facet normal -0.94949376702770849 0 0.31378589256933093
  outer loop
   vertex 4.9623384475708008 0.5 0.373475581407547
   vertex 4.9617223739624023 0 0.37161138653755188
   vertex 4.9623384475708008 0 0.373475581407547
  endloop
 endfacet
 facet normal -0.93306048050187862 0 0.35971952925244888
  outer loop
   vertex 4.9623384475708008 0.5 0.373475581407547
   vertex 4.9623384475708008 0 0.373475581407547
   vertex 4.9630446434020996 0.5 0.3753073513507843
  endloop
 endfacet
 facet normal -0.93306048050187862 0 0.35971952925244888
  outer loop
   vertex 4.9630446434020996 0 0.3753073513507843
   vertex 4.9630446434020996 0.5 0.3753073513507843
   vertex 4.9623384475708008 0 0.373475581407547
  endloop
 endfacet
 facet normal -0.91416423596459995 0 0.4053439893266696
  outer loop
   vertex 4.9630446434020996 0.5 0.3753073513507843
   vertex 4.9630446434020996 0 0.3753073513507843
   vertex 4.9638404846191406 0.5 0.37710219621658325
  endloop
 endfacet
 facet normal -0.91416423596459995 0 0.4053439893266696
  outer loop
   vertex 4.9638404846191406 0.5 0.37710219621658325
   vertex 4.9630446434020996 0 0.3753073513507843
   vertex 4.9638404846191406 0 0.37710219621658325
  endloop
 endfacet
 facet normal -0.89324612788589564 0 0.44956796484720085
  outer loop
   vertex 4.9638404846191406 0.5 0.37710219621658325
   vertex 4.9638404846191406 0 0.37710219621658325
   vertex 4.9647231101989746 0.5 0.37885588407516479
  endloop
 endfacet
 facet normal -0.89324612788589564 0 0.44956796484720085
  outer loop
   vertex 4.9647231101989746 0 0.37885588407516479
   vertex 4.9647231101989746 0.5 0.37885588407516479
   vertex 4.9638404846191406 0 0.37710219621658325
  endloop
 endfacet
 facet normal -0.87002717728151036 0 0.49300376346592678
  outer loop
   vertex 4.9647231101989746 0.5 0.37885588407516479
   vertex 4.9647231101989746 0 0.37885588407516479
   vertex 4.965691089630127 0.5 0.3805641233921051
  endloop
 endfacet
 facet normal -0.87002717728151036 0 0.49300376346592678
  outer loop
   vertex 4.965691089630127 0 0.3805641233921051
   vertex 4.965691089630127 0.5 0.3805641233921051
   vertex 4.9647231101989746 0 0.37885588407516479
  endloop
 endfacet
 facet normal -0.84493434285952029 0 0.5348700367907615
  outer loop
   vertex 4.965691089630127 0.5 0.3805641233921051
   vertex 4.965691089630127 0 0.3805641233921051
   vertex 4.9667410850524902 0.5 0.38222280144691467
  endloop
 endfacet
 facet normal -0.84493434285952029 0 0.5348700367907615
  outer loop
   vertex 4.9667410850524902 0 0.38222280144691467
   vertex 4.9667410850524902 0.5 0.38222280144691467
   vertex 4.965691089630127 0 0.3805641233921051
  endloop
 endfacet
 facet normal -0.81756477578235487 0 0.57583664124467449
  outer loop
   vertex 4.9667410850524902 0.5 0.38222280144691467
   vertex 4.9667410850524902 0 0.38222280144691467
   vertex 4.9678716659545898 0.5 0.38382798433303833
  endloop
 endfacet
 facet normal -0.81756477578235487 0 0.57583664124467449
  outer loop
   vertex 4.9678716659545898 0 0.38382798433303833
   vertex 4.9678716659545898 0.5 0.38382798433303833
   vertex 4.9667410850524902 0 0.38222280144691467
  endloop
 endfacet
 facet normal -0.788358880446559 0 0.61521563343355301
  outer loop
   vertex 4.9678716659545898 0.5 0.38382798433303833
   vertex 4.9678716659545898 0 0.38382798433303833
   vertex 4.9690794944763184 0.5 0.3853757381439209
  endloop
 endfacet
 facet normal -0.788358880446559 0 0.61521563343355301
  outer loop
   vertex 4.9690794944763184 0 0.3853757381439209
   vertex 4.9690794944763184 0.5 0.3853757381439209
   vertex 4.9678716659545898 0 0.38382798433303833
  endloop
 endfacet
 facet normal -0.75712905531805086 0 0.65326533169394196
  outer loop
   vertex 4.9690794944763184 0.5 0.3853757381439209
   vertex 4.9690794944763184 0 0.3853757381439209
   vertex 4.9703621864318848 0.5 0.3868623673915863
  endloop
 endfacet
 facet normal -0.75712905531805086 0 0.65326533169394196
  outer loop
   vertex 4.9703621864318848 0 0.3868623673915863
   vertex 4.9703621864318848 0.5 0.3868623673915863
   vertex 4.9690794944763184 0 0.3853757381439209
  endloop
 endfacet
 facet normal -0.72425199659753758 0 0.68953538373638257
  outer loop
   vertex 4.9703621864318848 0.5 0.3868623673915863
   vertex 4.9703621864318848 0 0.3868623673915863
   vertex 4.9717159271240234 0.5 0.38828426599502563
  endloop
 endfacet
 facet normal -0.72425199659753758 0 0.68953538373638257
  outer loop
   vertex 4.9717159271240234 0 0.38828426599502563
   vertex 4.9717159271240234 0.5 0.38828426599502563
   vertex 4.9703621864318848 0 0.3868623673915863
  endloop
 endfacet
 facet normal -0.68953576540706385 0 0.7242516332218345
  outer loop
   vertex 4.9717159271240234 0.5 0.38828426599502563
   vertex 4.9717159271240234 0 0.38828426599502563
   vertex 4.9731378555297852 0.5 0.38963803648948669
  endloop
 endfacet
 facet normal -0.68953576540706385 0 0.7242516332218345
  outer loop
   vertex 4.9731378555297852 0.5 0.38963803648948669
   vertex 4.9717159271240234 0 0.38828426599502563
   vertex 4.9731378555297852 0 0.38963803648948669
  endloop
 endfacet
 facet normal -0.65326090207488929 0 0.7571328772549123
  outer loop
   vertex 4.9731378555297852 0.5 0.38963803648948669
   vertex 4.9731378555297852 0 0.38963803648948669
   vertex 4.9746241569519043 0.5 0.39092043042182922
  endloop
 endfacet
 facet normal -0.65326090207488929 0 0.7571328772549123
  outer loop
   vertex 4.9746241569519043 0 0.39092043042182922
   vertex 4.9746241569519043 0.5 0.39092043042182922
   vertex 4.9731378555297852 0 0.38963803648948669
  endloop
 endfacet
 facet normal -0.6152103431831446 0 0.78836300879764609
  outer loop
   vertex 4.9746241569519043 0.5 0.39092043042182922
   vertex 4.9746241569519043 0 0.39092043042182922
   vertex 4.9761719703674316 0.5 0.39212828874588013
  endloop
 endfacet
 facet normal -0.6152103431831446 0 0.78836300879764609
  outer loop
   vertex 4.9761719703674316 0.5 0.39212828874588013
   vertex 4.9746241569519043 0 0.39092043042182922
   vertex 4.9761719703674316 0 0.39212828874588013
  endloop
 endfacet
 facet normal -0.57584193440428422 0 0.81756104761756598
  outer loop
   vertex 4.9761719703674316 0.5 0.39212828874588013
   vertex 4.9761719703674316 0 0.39212828874588013
   vertex 4.9777770042419434 0.5 0.39325878024101257
  endloop
 endfacet
 facet normal -0.57584193440428422 0 0.81756104761756598
  outer loop
   vertex 4.9777770042419434 0 0.39325878024101257
   vertex 4.9777770042419434 0.5 0.39325878024101257
   vertex 4.9761719703674316 0 0.39212828874588013
  endloop
 endfacet
 facet normal -0.53494519061913914 0 0.84488676343842251
  outer loop
   vertex 4.9777770042419434 0.5 0.39325878024101257
   vertex 4.9777770042419434 0 0.39325878024101257
   vertex 4.979435920715332 0.5 0.39430913329124451
  endloop
 endfacet
 facet normal -0.53494519061913914 0 0.84488676343842251
  outer loop
   vertex 4.979435920715332 0 0.39430913329124451
   vertex 4.979435920715332 0.5 0.39430913329124451
   vertex 4.9777770042419434 0 0.39325878024101257
  endloop
 endfacet
 facet normal -0.49294592174528262 0 0.87005995094286093
  outer loop
   vertex 4.979435920715332 0.5 0.39430913329124451
   vertex 4.979435920715332 0 0.39430913329124451
   vertex 4.9811439514160156 0.5 0.39527684450149536
  endloop
 endfacet
 facet normal -0.49294592174528262 0 0.87005995094286093
  outer loop
   vertex 4.9811439514160156 0 0.39527684450149536
   vertex 4.9811439514160156 0.5 0.39527684450149536
   vertex 4.979435920715332 0 0.39430913329124451
  endloop
 endfacet
 facet normal -0.44957991606094733 0 0.89324011277742765
  outer loop
   vertex 4.9811439514160156 0.5 0.39527684450149536
   vertex 4.9811439514160156 0 0.39527684450149536
   vertex 4.9828977584838867 0.5 0.39615955948829651
  endloop
 endfacet
 facet normal -0.44957991606094733 0 0.89324011277742765
  outer loop
   vertex 4.9828977584838867 0 0.39615955948829651
   vertex 4.9828977584838867 0.5 0.39615955948829651
   vertex 4.9811439514160156 0 0.39527684450149536
  endloop
 endfacet
 facet normal -0.40526081145701598 0 0.91420111282868233
  outer loop
   vertex 4.9828977584838867 0.5 0.39615955948829651
   vertex 4.9828977584838867 0 0.39615955948829651
   vertex 4.9846925735473633 0.5 0.39695519208908081
  endloop
 endfacet
 facet normal -0.40526081145701598 0 0.91420111282868233
  outer loop
   vertex 4.9846925735473633 0 0.39695519208908081
   vertex 4.9846925735473633 0.5 0.39695519208908081
   vertex 4.9828977584838867 0 0.39615955948829651
  endloop
 endfacet
 facet normal -0.35985055118709686 0 0.93300995750867677
  outer loop
   vertex 4.9846925735473633 0.5 0.39695519208908081
   vertex 4.9846925735473633 0 0.39695519208908081
   vertex 4.9865245819091797 0.5 0.39766177535057068
  endloop
 endfacet
 facet normal -0.35985055118709686 0 0.93300995750867677
  outer loop
   vertex 4.9865245819091797 0.5 0.39766177535057068
   vertex 4.9846925735473633 0 0.39695519208908081
   vertex 4.9865245819091797 0 0.39766177535057068
  endloop
 endfacet
 facet normal -0.31371258264323215 0 0.94951799113619395
  outer loop
   vertex 4.9865245819091797 0.5 0.39766177535057068
   vertex 4.9865245819091797 0 0.39766177535057068
   vertex 4.9883885383605957 0.5 0.39827761054039001
  endloop
 endfacet
 facet normal -0.31371258264323215 0 0.94951799113619395
  outer loop
   vertex 4.9883885383605957 0 0.39827761054039001
   vertex 4.9883885383605957 0.5 0.39827761054039001
   vertex 4.9865245819091797 0 0.39766177535057068
  endloop
 endfacet
 facet normal -0.26671986686797405 0 0.96377409833317806
  outer loop
   vertex 4.9883885383605957 0.5 0.39827761054039001
   vertex 4.9883885383605957 0 0.39827761054039001
   vertex 4.9902806282043457 0.5 0.39880123734474182
  endloop
 endfacet
 facet normal -0.26671986686797405 0 0.96377409833317806
  outer loop
   vertex 4.9902806282043457 0 0.39880123734474182
   vertex 4.9902806282043457 0.5 0.39880123734474182
   vertex 4.9883885383605957 0 0.39827761054039001
  endloop
 endfacet
 facet normal -0.21906724021217369 0 0.97570976435916734
  outer loop
   vertex 4.9902806282043457 0.5 0.39880123734474182
   vertex 4.9902806282043457 0 0.39880123734474182
   vertex 4.9921965599060059 0.5 0.39923140406608582
  endloop
 endfacet
 facet normal -0.21906724021217369 0 0.97570976435916734
  outer loop
   vertex 4.9921965599060059 0 0.39923140406608582
   vertex 4.9921965599060059 0.5 0.39923140406608582
   vertex 4.9902806282043457 0 0.39880123734474182
  endloop
 endfacet
 facet normal -0.17099837842180993 0 0.98527131013600078
  outer loop
   vertex 4.9921965599060059 0.5 0.39923140406608582
   vertex 4.9921965599060059 0 0.39923140406608582
   vertex 4.9941306114196777 0.5 0.39956706762313843
  endloop
 endfacet
 facet normal -0.17099837842180993 0 0.98527131013600078
  outer loop
   vertex 4.9941306114196777 0.5 0.39956706762313843
   vertex 4.9921965599060059 0 0.39923140406608582
   vertex 4.9941306114196777 0 0.39956706762313843
  endloop
 endfacet
 facet normal -0.12239073281215852 0 0.99248199405415061
  outer loop
   vertex 4.9941306114196777 0.5 0.39956706762313843
   vertex 4.9941306114196777 0 0.39956706762313843
   vertex 4.9960794448852539 0.5 0.3998073935508728
  endloop
 endfacet
 facet normal -0.12239073281215852 0 0.99248199405415061
  outer loop
   vertex 4.9960794448852539 0 0.3998073935508728
   vertex 4.9960794448852539 0.5 0.3998073935508728
   vertex 4.9941306114196777 0 0.39956706762313843
  endloop
 endfacet
 facet normal -0.073564139440535942 0 0.9972904879664567
  outer loop
   vertex 4.9960794448852539 0.5 0.3998073935508728
   vertex 4.9960794448852539 0 0.3998073935508728
   vertex 4.9980373382568359 0.5 0.39995181560516357
  endloop
 endfacet
 facet normal -0.073564139440535942 0 0.9972904879664567
  outer loop
   vertex 4.9980373382568359 0 0.39995181560516357
   vertex 4.9980373382568359 0.5 0.39995181560516357
   vertex 4.9960794448852539 0 0.3998073935508728
  endloop
 endfacet
 facet normal -0.024546173371076657 0 0.99969869729475835
  outer loop
   vertex 5 0.5 0.40000000596046448
   vertex 4.9980373382568359 0.5 0.39995181560516357
   vertex 5 0 0.40000000596046448
  endloop
 endfacet
 facet normal -0.024546173371076657 0 0.99969869729475835
  outer loop
   vertex 4.9980373382568359 0.5 0.39995181560516357
   vertex 4.9980373382568359 0 0.39995181560516357
   vertex 5 0 0.40000000596046448
  endloop
 endfacet
 facet normal 0 1 0
  outer loop
   vertex 5 0.5 0.36000001430511475
   vertex 4.9600000381469727 0.5 0.36000001430511475
   vertex 5 0.5 0.40000000596046448
  endloop
 endfacet
 facet normal -0 1 0
  outer loop
   vertex 4.9600000381469727 0.5 0.36000001430511475
   vertex 4.9600481986999512 0.5 0.3619627058506012
   vertex 5 0.5 0.40000000596046448
  endloop
 endfacet
 facet normal -0 1 0
  outer loop
   vertex 4.9600481986999512 0.5 0.3619627058506012
   vertex 4.9601926803588867 0.5 0.36392068862915039
   vertex 5 0.5 0.40000000596046448
  endloop
 endfacet
 facet normal -0 1 0
  outer loop
   vertex 4.9601926803588867 0.5 0.36392068862915039
   vertex 4.9604330062866211 0.5 0.36586922407150269
   vertex 5 0.5 0.40000000596046448
  endloop
 endfacet
 facet normal 0 1 0
  outer loop
   vertex 5 0.5 0.40000000596046448
   vertex 4.9604330062866211 0.5 0.36586922407150269
   vertex 4.9980373382568359 0.5 0.39995181560516357
  endloop
 endfacet
 facet normal -0 1 0
  outer loop
   vertex 4.9604330062866211 0.5 0.36586922407150269
   vertex 4.9607686996459961 0.5 0.36780360341072083
   vertex 4.9980373382568359 0.5 0.39995181560516357
  endloop
 endfacet
 facet normal -0 1 0
  outer loop
   vertex 4.9607686996459961 0.5 0.36780360341072083
   vertex 4.9611988067626953 0.5 0.36971920728683472
   vertex 4.9980373382568359 0.5 0.39995181560516357
  endloop
 endfacet
 facet normal -0 1 0
  outer loop
   vertex 4.9611988067626953 0.5 0.36971920728683472
   vertex 4.9617223739624023 0.5 0.37161138653755188
   vertex 4.9980373382568359 0.5 0.39995181560516357
  endloop
 endfacet
 facet normal 0 1 0
  outer loop
   vertex 4.9980373382568359 0.5 0.39995181560516357
   vertex 4.9617223739624023 0.5 0.37161138653755188
   vertex 4.9960794448852539 0.5 0.3998073935508728
  endloop
 endfacet
 facet normal 0 1 0
  outer loop
   vertex 4.9960794448852539 0.5 0.3998073935508728
   vertex 4.9617223739624023 0.5 0.37161138653755188
   vertex 4.9941306114196777 0.5 0.39956706762313843
  endloop
 endfacet
 facet normal -0 1 0
  outer loop
   vertex 4.9617223739624023 0.5 0.37161138653755188
   vertex 4.9623384475708008 0.5 0.373475581407547
   vertex 4.9941306114196777 0.5 0.39956706762313843
  endloop
 endfacet
 facet normal -0 1 0
  outer loop
   vertex 4.9623384475708008 0.5 0.373475581407547
   vertex 4.9630446434020996 0.5 0.3753073513507843
   vertex 4.9941306114196777 0.5 0.39956706762313843
  endloop
 endfacet
 facet normal -0 1 0
  outer loop
   vertex 4.9630446434020996 0.5 0.3753073513507843
   vertex 4.9638404846191406 0.5 0.37710219621658325
   vertex 4.9941306114196777 0.5 0.39956706762313843
  endloop
 endfacet
 facet normal -0 1 0
  outer loop
   vertex 4.9638404846191406 0.5 0.37710219621658325
   vertex 4.9647231101989746 0.5 0.37885588407516479
   vertex 4.9941306114196777 0.5 0.39956706762313843
  endloop
 endfacet
 facet normal -0 1 0
  outer loop
   vertex 4.9647231101989746 0.5 0.37885588407516479
   vertex 4.965691089630127 0.5 0.3805641233921051
   vertex 4.9941306114196777 0.5 0.39956706762313843
  endloop
 endfacet
 facet normal -0 1 0
  outer loop
   vertex 4.965691089630127 0.5 0.3805641233921051
   vertex 4.9667410850524902 0.5 0.38222280144691467
   vertex 4.9941306114196777 0.5 0.39956706762313843
  endloop
 endfacet
 facet normal -0 1 0
  outer loop
   vertex 4.9667410850524902 0.5 0.38222280144691467
   vertex 4.9678716659545898 0.5 0.38382798433303833
   vertex 4.9941306114196777 0.5 0.39956706762313843
  endloop
 endfacet
 facet normal -0 1 0
  outer loop
   vertex 4.9678716659545898 0.5 0.38382798433303833
   vertex 4.9690794944763184 0.5 0.3853757381439209
   vertex 4.9941306114196777 0.5 0.39956706762313843
  endloop
 endfacet
 facet normal -0 1 0
  outer loop
   vertex 4.9690794944763184 0.5 0.3853757381439209
   vertex 4.9703621864318848 0.5 0.3868623673915863
   vertex 4.9941306114196777 0.5 0.39956706762313843
  endloop
 endfacet
 facet normal -0 1 0
  outer loop
   vertex 4.9703621864318848 0.5 0.3868623673915863
   vertex 4.9717159271240234 0.5 0.38828426599502563
   vertex 4.9941306114196777 0.5 0.39956706762313843
  endloop
 endfacet
 facet normal -0 1 0
  outer loop
   vertex 4.9717159271240234 0.5 0.38828426599502563
   vertex 4.9731378555297852 0.5 0.38963803648948669
   vertex 4.9941306114196777 0.5 0.39956706762313843
  endloop
 endfacet
 facet normal -0 1 0
  outer loop
   vertex 4.9731378555297852 0.5 0.38963803648948669
   vertex 4.9746241569519043 0.5 0.39092043042182922
   vertex 4.9941306114196777 0.5 0.39956706762313843
  endloop
 endfacet
 facet normal -0 1 0
  outer loop
   vertex 4.9746241569519043 0.5 0.39092043042182922
   vertex 4.9761719703674316 0.5 0.39212828874588013
   vertex 4.9941306114196777 0.5 0.39956706762313843
  endloop
 endfacet
 facet normal -0 1 0
  outer loop
   vertex 4.9761719703674316 0.5 0.39212828874588013
   vertex 4.9777770042419434 0.5 0.39325878024101257
   vertex 4.9941306114196777 0.5 0.39956706762313843
  endloop
 endfacet
 facet normal -0 1 0
  outer loop
   vertex 4.9777770042419434 0.5 0.39325878024101257
   vertex 4.979435920715332 0.5 0.39430913329124451
   vertex 4.9941306114196777 0.5 0.39956706762313843
  endloop
 endfacet
 facet normal -0 1 0
  outer loop
   vertex 4.979435920715332 0.5 0.39430913329124451
   vertex 4.9811439514160156 0.5 0.39527684450149536
   vertex 4.9941306114196777 0.5 0.39956706762313843
  endloop
 endfacet
 facet normal -0 1 0
  outer loop
   vertex 4.9811439514160156 0.5 0.39527684450149536
   vertex 4.9828977584838867 0.5 0.39615955948829651
   vertex 4.9941306114196777 0.5 0.39956706762313843
  endloop
 endfacet
 facet normal -0 1 0
  outer loop
   vertex 4.9828977584838867 0.5 0.39615955948829651
   vertex 4.9846925735473633 0.5 0.39695519208908081
   vertex 4.9941306114196777 0.5 0.39956706762313843
  endloop
 endfacet
 facet normal -0 1 0
  outer loop
   vertex 4.9846925735473633 0.5 0.39695519208908081
   vertex 4.9865245819091797 0.5 0.39766177535057068
   vertex 4.9941306114196777 0.5 0.39956706762313843
  endloop
 endfacet
 facet normal -0 1 0
  outer loop
   vertex 4.9865245819091797 0.5 0.39766177535057068
   vertex 4.9883885383605957 0.5 0.39827761054039001
   vertex 4.9941306114196777 0.5 0.39956706762313843
  endloop
 endfacet
 facet normal -0 1 0
  outer loop
   vertex 4.9883885383605957 0.5 0.39827761054039001
   vertex 4.9902806282043457 0.5 0.39880123734474182
   vertex 4.9941306114196777 0.5 0.39956706762313843
  endloop
 endfacet
 facet normal 0 1 0
  outer loop
   vertex 4.9921965599060059 0.5 0.39923140406608582
   vertex 4.9941306114196777 0.5 0.39956706762313843
   vertex 4.9902806282043457 0.5 0.39880123734474182
  endloop
 endfacet
 facet normal 0 -1 -0
  outer loop
   vertex 5 0 0.36000001430511475
   vertex 5 0 0.40000000596046448
   vertex 4.9600000381469727 0 0.36000001430511475
  endloop
 endfacet
 facet normal 0 -1 0
  outer loop
   vertex 4.9600000381469727 0 0.36000001430511475
   vertex 5 0 0.40000000596046448
   vertex 4.9600481986999512 0 0.3619627058506012
  endloop
 endfacet
 facet normal 0 -1 0
  outer loop
   vertex 4.9600481986999512 0 0.3619627058506012
   vertex 5 0 0.40000000596046448
   vertex 4.9601926803588867 0 0.36392068862915039
  endloop
 endfacet
 facet normal 0 -1 0
  outer loop
   vertex 4.9601926803588867 0 0.36392068862915039
   vertex 5 0 0.40000000596046448
   vertex 4.9604330062866211 0 0.36586922407150269
  endloop
 endfacet
 facet normal 0 -1 -0
  outer loop
   vertex 5 0 0.40000000596046448
   vertex 4.9980373382568359 0 0.39995181560516357
   vertex 4.9604330062866211 0 0.36586922407150269
  endloop
 endfacet
 facet normal 0 -1 0
  outer loop
   vertex 4.9604330062866211 0 0.36586922407150269
   vertex 4.9980373382568359 0 0.39995181560516357
   vertex 4.9607686996459961 0 0.36780360341072083
  endloop
 endfacet
 facet normal 0 -1 0
  outer loop
   vertex 4.9607686996459961 0 0.36780360341072083
   vertex 4.9980373382568359 0 0.39995181560516357
   vertex 4.9611988067626953 0 0.36971920728683472
  endloop
 endfacet
 facet normal 0 -1 0
  outer loop
   vertex 4.9611988067626953 0 0.36971920728683472
   vertex 4.9980373382568359 0 0.39995181560516357
   vertex 4.9617223739624023 0 0.37161138653755188
  endloop
 endfacet
 facet normal 0 -1 -0
  outer loop
   vertex 4.9980373382568359 0 0.39995181560516357
   vertex 4.9960794448852539 0 0.3998073935508728
   vertex 4.9617223739624023 0 0.37161138653755188
  endloop
 endfacet
 facet normal 0 -1 -0
  outer loop
   vertex 4.9960794448852539 0 0.3998073935508728
   vertex 4.9941306114196777 0 0.39956706762313843
   vertex 4.9617223739624023 0 0.37161138653755188
  endloop
 endfacet
 facet normal 0 -1 0
  outer loop
   vertex 4.9617223739624023 0 0.37161138653755188
   vertex 4.9941306114196777 0 0.39956706762313843
   vertex 4.9623384475708008 0 0.373475581407547
  endloop
 endfacet
 facet normal 0 -1 0
  outer loop
   vertex 4.9623384475708008 0 0.373475581407547
   vertex 4.9941306114196777 0 0.39956706762313843
   vertex 4.9630446434020996 0 0.3753073513507843
  endloop
 endfacet
 facet normal 0 -1 0
  outer loop
   vertex 4.9630446434020996 0 0.3753073513507843
   vertex 4.9941306114196777 0 0.39956706762313843
   vertex 4.9638404846191406 0 0.37710219621658325
  endloop
 endfacet
 facet normal 0 -1 0
  outer loop
   vertex 4.9638404846191406 0 0.37710219621658325
   vertex 4.9941306114196777 0 0.39956706762313843
   vertex 4.9647231101989746 0 0.37885588407516479
  endloop
 endfacet
 facet normal 0 -1 0
  outer loop
   vertex 4.9647231101989746 0 0.37885588407516479
   vertex 4.9941306114196777 0 0.39956706762313843
   vertex 4.965691089630127 0 0.3805641233921051
  endloop
 endfacet
 facet normal 0 -1 0
  outer loop
   vertex 4.965691089630127 0 0.3805641233921051
   vertex 4.9941306114196777 0 0.39956706762313843
   vertex 4.9667410850524902 0 0.38222280144691467
  endloop
 endfacet
 facet normal 0 -1 0
  outer loop
   vertex 4.9667410850524902 0 0.38222280144691467
   vertex 4.9941306114196777 0 0.39956706762313843
   vertex 4.9678716659545898 0 0.38382798433303833
  endloop
 endfacet
 facet normal 0 -1 0
  outer loop
   vertex 4.9678716659545898 0 0.38382798433303833
   vertex 4.9941306114196777 0 0.39956706762313843
   vertex 4.9690794944763184 0 0.3853757381439209
  endloop
 endfacet
 facet normal 0 -1 0
  outer loop
   vertex 4.9690794944763184 0 0.3853757381439209
   vertex 4.9941306114196777 0 0.39956706762313843
   vertex 4.9703621864318848 0 0.3868623673915863
  endloop
 endfacet
 facet normal 0 -1 0
  outer loop
   vertex 4.9703621864318848 0 0.3868623673915863
   vertex 4.9941306114196777 0 0.39956706762313843
   vertex 4.9717159271240234 0 0.38828426599502563
  endloop
 endfacet
 facet normal 0 -1 0
  outer loop
   vertex 4.9717159271240234 0 0.38828426599502563
   vertex 4.9941306114196777 0 0.39956706762313843
   vertex 4.9731378555297852 0 0.38963803648948669
  endloop
 endfacet
 facet normal 0 -1 0
  outer loop
   vertex 4.9731378555297852 0 0.38963803648948669
   vertex 4.9941306114196777 0 0.39956706762313843
   vertex 4.9746241569519043 0 0.39092043042182922
  endloop
 endfacet
 facet normal 0 -1 0
  outer loop
   vertex 4.9746241569519043 0 0.39092043042182922
   vertex 4.9941306114196777 0 0.39956706762313843
   vertex 4.9761719703674316 0 0.39212828874588013
  endloop
 endfacet
 facet normal 0 -1 0
  outer loop
   vertex 4.9761719703674316 0 0.39212828874588013
   vertex 4.9941306114196777 0 0.39956706762313843
   vertex 4.9777770042419434 0 0.39325878024101257
  endloop
 endfacet
 facet normal 0 -1 0
  outer loop
   vertex 4.9777770042419434 0 0.39325878024101257
   vertex 4.9941306114196777 0 0.39956706762313843
   vertex 4.979435920715332 0 0.39430913329124451
  endloop
 endfacet
 facet normal 0 -1 0
  outer loop
   vertex 4.979435920715332 0 0.39430913329124451
   vertex 4.9941306114196777 0 0.39956706762313843
   vertex 4.9811439514160156 0 0.39527684450149536
  endloop
 endfacet
 facet normal 0 -1 0
  outer loop
   vertex 4.9811439514160156 0 0.39527684450149536
   vertex 4.9941306114196777 0 0.39956706762313843
   vertex 4.9828977584838867 0 0.39615955948829651
  endloop
 endfacet
 facet normal 0 -1 0
  outer loop
   vertex 4.9828977584838867 0 0.39615955948829651
   vertex 4.9941306114196777 0 0.39956706762313843
   vertex 4.9846925735473633 0 0.39695519208908081
  endloop
 endfacet
 facet normal 0 -1 0
  outer loop
   vertex 4.9846925735473633 0 0.39695519208908081
   vertex 4.9941306114196777 0 0.39956706762313843
   vertex 4.9865245819091797 0 0.39766177535057068
  endloop
 endfacet
 facet normal 0 -1 0
  outer loop
   vertex 4.9865245819091797 0 0.39766177535057068
   vertex 4.9941306114196777 0 0.39956706762313843
   vertex 4.9883885383605957 0 0.39827761054039001
  endloop
 endfacet
 facet normal 0 -1 0
  outer loop
   vertex 4.9883885383605957 0 0.39827761054039001
   vertex 4.9941306114196777 0 0.39956706762313843
   vertex 4.9902806282043457 0 0.39880123734474182
  endloop
 endfacet
 facet normal 0 -1 0
  outer loop
   vertex 4.9921965599060059 0 0.39923140406608582
   vertex 4.9902806282043457 0 0.39880123734474182
   vertex 4.9941306114196777 0 0.39956706762313843
  endloop
 endfacet
 facet normal 0 0 -1
  outer loop
   vertex 5 0 0.36000001430511475
   vertex 4.9600000381469727 0 0.36000001430511475
   vertex 5 0.25 0.36000001430511475
  endloop
 endfacet
 facet normal -0 0 0
  outer loop
   vertex 4.9600000381469727 0.5 0.36000001430511475
   vertex 4.9600000381469727 0.5 0.36000001430511475
   vertex 4.9600000381469727 0 0.36000001430511475
  endloop
 endfacet
 facet normal 0 0 -1
  outer loop
   vertex 5 0.5 0.36000001430511475
   vertex 5 0.25 0.36000001430511475
   vertex 4.9600000381469727 0.5 0.36000001430511475
  endloop
 endfacet
 facet normal 0 0 -1
  outer loop
   vertex 4.9600000381469727 0 0.36000001430511475
   vertex 4.9600000381469727 0.5 0.36000001430511475
   vertex 5 0.25 0.36000001430511475
  endloop
 endfacet
endsolid
