solid Visualization Toolkit generated SLA File
 facet normal -1 0 0
  outer loop
   vertex 0 -0.10000000149011612 -0.10000000149011612
   vertex 0 -0.10000000149011612 1
   vertex 0 0 -0.10000000149011612
  endloop
 endfacet
 facet normal -1 0 0
  outer loop
   vertex 0 0 1
   vertex 0 0 -0.10000000149011612
   vertex 0 -0.10000000149011612 1
  endloop
 endfacet
 facet normal 1 0 0
  outer loop
   vertex 10 -0.10000000149011612 -0.10000000149011612
   vertex 10 0 -0.10000000149011612
   vertex 10 -0.10000000149011612 1
  endloop
 endfacet
 facet normal 1 -0 0
  outer loop
   vertex 10 0 1
   vertex 10 -0.10000000149011612 1
   vertex 10 0 -0.10000000149011612
  endloop
 endfacet
 facet normal 0 -1 0
  outer loop
   vertex 0 -0.10000000149011612 -0.10000000149011612
   vertex 10 -0.10000000149011612 -0.10000000149011612
   vertex 0 -0.10000000149011612 1
  endloop
 endfacet
 facet normal 0 -1 0
  outer loop
   vertex 10 -0.10000000149011612 1
   vertex 0 -0.10000000149011612 1
   vertex 10 -0.10000000149011612 -0.10000000149011612
  endloop
 endfacet
 facet normal 0 1 0
  outer loop
   vertex 0 0 -0.10000000149011612
   vertex 0 0 1
   vertex 10 0 -0.10000000149011612
  endloop
 endfacet
 facet normal 0 1 -0
  outer loop
   vertex 10 0 1
   vertex 10 0 -0.10000000149011612
   vertex 0 0 1
  endloop
 endfacet
 facet normal 0 0 -1
  outer loop
   vertex 0 -0.10000000149011612 -0.10000000149011612
   vertex 0 0 -0.10000000149011612
   vertex 10 -0.10000000149011612 -0.10000000149011612
  endloop
 endfacet
 facet normal 0 0 -1
  outer loop
   vertex 10 0 -0.10000000149011612
   vertex 10 -0.10000000149011612 -0.10000000149011612
   vertex 0 0 -0.10000000149011612
  endloop
 endfacet
 facet normal 0 0 1
  outer loop
   vertex 0 -0.10000000149011612 1
   vertex 10 -0.10000000149011612 1
   vertex 0 0 1
  endloop
 endfacet
 facet normal -0 0 1
  outer loop
   vertex 10 0 1
   vertex 0 0 1
   vertex 10 -0.10000000149011612 1
  endloop
 endfacet
endsolid
