solid Visualization Toolkit generated SLA File
 facet normal -1 0 0
  outer loop
   vertex 4.9900999069213867 0.12497500330209732 0.32499998807907104
   vertex 4.9900999069213867 0.12497500330209732 0.375
   vertex 4.9900999069213867 0.37502500414848328 0.32499998807907104
  endloop
 endfacet
 facet normal -1 0 0
  outer loop
   vertex 4.9900999069213867 0.37502500414848328 0.375
   vertex 4.9900999069213867 0.37502500414848328 0.32499998807907104
   vertex 4.9900999069213867 0.12497500330209732 0.375
  endloop
 endfacet
 facet normal 1 0 0
  outer loop
   vertex 5.0010013580322266 0.12497500330209732 0.32499998807907104
   vertex 5.0010013580322266 0.37502500414848328 0.32499998807907104
   vertex 5.0010013580322266 0.12497500330209732 0.375
  endloop
 endfacet
 facet normal 1 -0 0
  outer loop
   vertex 5.0010013580322266 0.37502500414848328 0.375
   vertex 5.0010013580322266 0.12497500330209732 0.375
   vertex 5.0010013580322266 0.37502500414848328 0.32499998807907104
  endloop
 endfacet
 facet normal 0 -1 0
  outer loop
   vertex 4.9900999069213867 0.12497500330209732 0.32499998807907104
   vertex 5.0010013580322266 0.12497500330209732 0.32499998807907104
   vertex 4.9900999069213867 0.12497500330209732 0.375
  endloop
 endfacet
 facet normal 0 -1 0
  outer loop
   vertex 5.0010013580322266 0.12497500330209732 0.375
   vertex 4.9900999069213867 0.12497500330209732 0.375
   vertex 5.0010013580322266 0.12497500330209732 0.32499998807907104
  endloop
 endfacet
 facet normal 0 1 0
  outer loop
   vertex 4.9900999069213867 0.37502500414848328 0.32499998807907104
   vertex 4.9900999069213867 0.37502500414848328 0.375
   vertex 5.0010013580322266 0.37502500414848328 0.32499998807907104
  endloop
 endfacet
 facet normal 0 1 -0
  outer loop
   vertex 5.0010013580322266 0.37502500414848328 0.375
   vertex 5.0010013580322266 0.37502500414848328 0.32499998807907104
   vertex 4.9900999069213867 0.37502500414848328 0.375
  endloop
 endfacet
 facet normal 0 0 -1
  outer loop
   vertex 4.9900999069213867 0.12497500330209732 0.32499998807907104
   vertex 4.9900999069213867 0.37502500414848328 0.32499998807907104
   vertex 5.0010013580322266 0.12497500330209732 0.32499998807907104
  endloop
 endfacet
 facet normal 0 0 -1
  outer loop
   vertex 5.0010013580322266 0.37502500414848328 0.32499998807907104
   vertex 5.0010013580322266 0.12497500330209732 0.32499998807907104
   vertex 4.9900999069213867 0.37502500414848328 0.32499998807907104
  endloop
 endfacet
 facet normal 0 0 1
  outer loop
   vertex 4.9900999069213867 0.12497500330209732 0.375
   vertex 5.0010013580322266 0.12497500330209732 0.375
   vertex 4.9900999069213867 0.37502500414848328 0.375
  endloop
 endfacet
 facet normal -0 0 1
  outer loop
   vertex 5.0010013580322266 0.37502500414848328 0.375
   vertex 4.9900999069213867 0.37502500414848328 0.375
   vertex 5.0010013580322266 0.12497500330209732 0.375
  endloop
 endfacet
endsolid
