solid Visualization Toolkit generated SLA File
 facet normal -1 0 0
  outer loop
   vertex 23.5 18.5 0
   vertex 23.5 18.5 6
   vertex 23.5 21.5 0
  endloop
 endfacet
 facet normal -1 0 0
  outer loop
   vertex 23.5 21.5 6
   vertex 23.5 21.5 0
   vertex 23.5 18.5 6
  endloop
 endfacet
 facet normal 1 0 0
  outer loop
   vertex 26.5 18.5 0
   vertex 26.5 21.5 0
   vertex 26.5 18.5 6
  endloop
 endfacet
 facet normal 1 -0 0
  outer loop
   vertex 26.5 21.5 6
   vertex 26.5 18.5 6
   vertex 26.5 21.5 0
  endloop
 endfacet
 facet normal 0 -1 0
  outer loop
   vertex 23.5 18.5 0
   vertex 26.5 18.5 0
   vertex 23.5 18.5 6
  endloop
 endfacet
 facet normal 0 -1 0
  outer loop
   vertex 26.5 18.5 6
   vertex 23.5 18.5 6
   vertex 26.5 18.5 0
  endloop
 endfacet
 facet normal 0 1 0
  outer loop
   vertex 23.5 21.5 0
   vertex 23.5 21.5 6
   vertex 26.5 21.5 0
  endloop
 endfacet
 facet normal 0 1 -0
  outer loop
   vertex 26.5 21.5 6
   vertex 26.5 21.5 0
   vertex 23.5 21.5 6
  endloop
 endfacet
 facet normal 0 0 -1
  outer loop
   vertex 23.5 18.5 0
   vertex 23.5 21.5 0
   vertex 26.5 18.5 0
  endloop
 endfacet
 facet normal 0 0 -1
  outer loop
   vertex 26.5 21.5 0
   vertex 26.5 18.5 0
   vertex 23.5 21.5 0
  endloop
 endfacet
 facet normal 0 0 1
  outer loop
   vertex 23.5 18.5 6
   vertex 26.5 18.5 6
   vertex 23.5 21.5 6
  endloop
 endfacet
 facet normal -0 0 1
  outer loop
   vertex 26.5 21.5 6
   vertex 23.5 21.5 6
   vertex 26.5 18.5 6
  endloop
 endfacet
endsolid
