solid Visualization Toolkit generated SLA File
 facet normal -1 0 0
  outer loop
   vertex 0 10 0
   vertex 0 10 8
   vertex 0 40 0
  endloop
 endfacet
 facet normal -1 0 0
  outer loop
   vertex 0 40 8
   vertex 0 40 0
   vertex 0 10 8
  endloop
 endfacet
 facet normal 1 0 0
  outer loop
   vertex 15 10 0
   vertex 15 40 0
   vertex 15 10 8
  endloop
 endfacet
 facet normal 1 -0 0
  outer loop
   vertex 15 40 8
   vertex 15 10 8
   vertex 15 40 0
  endloop
 endfacet
 facet normal 0 -1 0
  outer loop
   vertex 0 10 0
   vertex 15 10 0
   vertex 0 10 8
  endloop
 endfacet
 facet normal 0 -1 0
  outer loop
   vertex 15 10 8
   vertex 0 10 8
   vertex 15 10 0
  endloop
 endfacet
 facet normal 0 1 0
  outer loop
   vertex 0 40 0
   vertex 0 40 8
   vertex 15 40 0
  endloop
 endfacet
 facet normal 0 1 -0
  outer loop
   vertex 15 40 8
   vertex 15 40 0
   vertex 0 40 8
  endloop
 endfacet
 facet normal 0 0 -1
  outer loop
   vertex 0 10 0
   vertex 0 40 0
   vertex 15 10 0
  endloop
 endfacet
 facet normal 0 0 -1
  outer loop
   vertex 15 40 0
   vertex 15 10 0
   vertex 0 40 0
  endloop
 endfacet
 facet normal 0 0 1
  outer loop
   vertex 0 10 8
   vertex 15 10 8
   vertex 0 40 8
  endloop
 endfacet
 facet normal -0 0 1
  outer loop
   vertex 15 40 8
   vertex 0 40 8
   vertex 15 10 8
  endloop
 endfacet
 facet normal -1 0 0
  outer loop
   vertex 15 35 0
   vertex 15 35 8
   vertex 15 40 0
  endloop
 endfacet
 facet normal -1 0 0
  outer loop
   vertex 15 40 8
   vertex 15 40 0
   vertex 15 35 8
  endloop
 endfacet
 facet normal 1 0 0
  outer loop
   vertex 50 35 0
   vertex 50 40 0
   vertex 50 35 8
  endloop
 endfacet
 facet normal 1 -0 0
  outer loop
   vertex 50 40 8
   vertex 50 35 8
   vertex 50 40 0
  endloop
 endfacet
 facet normal 0 -1 0
  outer loop
   vertex 15 35 0
   vertex 50 35 0
   vertex 15 35 8
  endloop
 endfacet
 facet normal 0 -1 0
  outer loop
   vertex 50 35 8
   vertex 15 35 8
   vertex 50 35 0
  endloop
 endfacet
 facet normal 0 1 0
  outer loop
   vertex 15 40 0
   vertex 15 40 8
   vertex 50 40 0
  endloop
 endfacet
 facet normal 0 1 -0
  outer loop
   vertex 50 40 8
   vertex 50 40 0
   vertex 15 40 8
  endloop
 endfacet
 facet normal 0 0 -1
  outer loop
   vertex 15 35 0
   vertex 15 40 0
   vertex 50 35 0
  endloop
 endfacet
 facet normal 0 0 -1
  outer loop
   vertex 50 40 0
   vertex 50 35 0
   vertex 15 40 0
  endloop
 endfacet
 facet normal 0 0 1
  outer loop
   vertex 15 35 8
   vertex 50 35 8
   vertex 15 40 8
  endloop
 endfacet
 facet normal -0 0 1
  outer loop
   vertex 50 40 8
   vertex 15 40 8
   vertex 50 35 8
  endloop
 endfacet
endsolid
