solid Visualization Toolkit generated SLA File
 facet normal -1 0 0
  outer loop
   vertex 0 0 0
   vertex 0 0 8
   vertex 0 5 0
  endloop
 endfacet
 facet normal -1 0 0
  outer loop
   vertex 0 5 8
   vertex 0 5 0
   vertex 0 0 8
  endloop
 endfacet
 facet normal 1 0 0
  outer loop
   vertex 30 0 0
   vertex 30 5 0
   vertex 30 0 8
  endloop
 endfacet
 facet normal 1 -0 0
  outer loop
   vertex 30 5 8
   vertex 30 0 8
   vertex 30 5 0
  endloop
 endfacet
 facet normal 0 -1 0
  outer loop
   vertex 0 0 0
   vertex 30 0 0
   vertex 0 0 8
  endloop
 endfacet
 facet normal 0 -1 0
  outer loop
   vertex 30 0 8
   vertex 0 0 8
   vertex 30 0 0
  endloop
 endfacet
 facet normal 0 1 0
  outer loop
   vertex 0 5 0
   vertex 0 5 8
   vertex 30 5 0
  endloop
 endfacet
 facet normal 0 1 -0
  outer loop
   vertex 30 5 8
   vertex 30 5 0
   vertex 0 5 8
  endloop
 endfacet
 facet normal 0 0 -1
  outer loop
   vertex 0 0 0
   vertex 0 5 0
   vertex 30 0 0
  endloop
 endfacet
 facet normal 0 0 -1
  outer loop
   vertex 30 5 0
   vertex 30 0 0
   vertex 0 5 0
  endloop
 endfacet
 facet normal 0 0 1
  outer loop
   vertex 0 0 8
   vertex 30 0 8
   vertex 0 5 8
  endloop
 endfacet
 facet normal -0 0 1
  outer loop
   vertex 30 5 8
   vertex 0 5 8
   vertex 30 0 8
  endloop
 endfacet
 facet normal -1 0 0
  outer loop
   vertex 30 0 0
   vertex 30 0 8
   vertex 30 30 0
  endloop
 endfacet
 facet normal -1 0 0
  outer loop
   vertex 30 30 8
   vertex 30 30 0
   vertex 30 0 8
  endloop
 endfacet
 facet normal 1 0 0
  outer loop
   vertex 50 0 0
   vertex 50 30 0
   vertex 50 0 8
  endloop
 endfacet
 facet normal 1 -0 0
  outer loop
   vertex 50 30 8
   vertex 50 0 8
   vertex 50 30 0
  endloop
 endfacet
 facet normal 0 -1 0
  outer loop
   vertex 30 0 0
   vertex 50 0 0
   vertex 30 0 8
  endloop
 endfacet
 facet normal 0 -1 0
  outer loop
   vertex 50 0 8
   vertex 30 0 8
   vertex 50 0 0
  endloop
 endfacet
 facet normal 0 1 0
  outer loop
   vertex 30 30 0
   vertex 30 30 8
   vertex 50 30 0
  endloop
 endfacet
 facet normal 0 1 -0
  outer loop
   vertex 50 30 8
   vertex 50 30 0
   vertex 30 30 8
  endloop
 endfacet
 facet normal 0 0 -1
  outer loop
   vertex 30 0 0
   vertex 30 30 0
   vertex 50 0 0
  endloop
 endfacet
 facet normal 0 0 -1
  outer loop
   vertex 50 30 0
   vertex 50 0 0
   vertex 30 30 0
  endloop
 endfacet
 facet normal 0 0 1
  outer loop
   vertex 30 0 8
   vertex 50 0 8
   vertex 30 30 8
  endloop
 endfacet
 facet normal -0 0 1
  outer loop
   vertex 50 30 8
   vertex 30 30 8
   vertex 50 0 8
  endloop
 endfacet
endsolid
